<?xml version="1.0" encoding="UTF-8" standalone="no"?>
<!DOCTYPE svg PUBLIC "-//W3C//DTD SVG 1.1//EN" "http://www.w3.org/Graphics/SVG/1.1/DTD/svg11.dtd">
<svg version="1.1" xmlns="http://www.w3.org/2000/svg" xmlns:xlink="http://www.w3.org/1999/xlink" preserveAspectRatio="xMidYMid meet" viewBox="0 0 640 640" width="100" height="100"><defs><path d="M191.58 305.79C123.98 254.73 91.63 226.48 94.52 221.04L58.75 272.38L191.58 504.8C97.26 390.68 43.67 327.15 30.81 314.22C0.33 356.5 4.69 397.06 5.8 435.97C8.54 541.86 130.16 630.89 234.77 631.31C364.63 629.5 513.43 533.8 462.3 410.61C521.46 308.77 327.4 235.8 234.77 7.75C144.26 201.71 153.93 143.98 127.29 186.77C159.29 236.9 164.1 259.25 191.58 305.79Z" id="baZ3nrmrJ"></path><path d="M318.77 304.57C362.56 356.13 400.97 382.89 360.05 412.33C405.81 456.58 362.08 495.95 321.84 515.65C322.86 486.73 321.84 416.37 318.77 304.57Z" id="b7ugh72v09"></path></defs><g><g><g><g><use xlink:href="#baZ3nrmrJ" opacity="1" fill="#000000" fill-opacity="0"></use><g><use xlink:href="#baZ3nrmrJ" opacity="1" fill-opacity="0" stroke="#ffffff" stroke-width="4" stroke-opacity="1"></use></g></g><g><use xlink:href="#b7ugh72v09" opacity="1" fill="#000000" fill-opacity="0"></use><g><use xlink:href="#b7ugh72v09" opacity="1" fill-opacity="0" stroke="#ffffff" stroke-width="4" stroke-opacity="1"></use></g></g></g></g></g></svg>